PathFileType	4	(X/Y/Z)	C:/Users/beibeiliu/ov580/test_trc/User2\sequence.44_training_dense_right.trc
DataRate	CameraRate	NumFrames	NumMarkers	Units	OrigDataRate	OrigDataStartFrame	OrigNumFrames
120	120	22	19	mm	120	51	75
Frame#	Time	ThumbCMC			ThumbMCP			ThumbIP			ThumbTip			IndexMCP			IndexPIP			IndexTip			MiddleMCP			MiddlePIP			MiddleTip			RingMCP			RingPIP			RingTip			PinkyMCP			PinkyPIP			PinkyTip			BackHand1			BackHand2			BackHand3	
		X0	Y0	Z0	X1	Y1	Z1	X2	Y2	Z2	X3	Y3	Z3	X4	Y4	Z4	X5	Y5	Z5	X6	Y6	Z6	X7	Y7	Z7	X8	Y8	Z8	X9	Y9	Z9	X10	Y10	Z10	X11	Y11	Z11	X12	Y12	Z12	X13	Y13	Z13	X14	Y14	Z14	X15	Y15	Z15	X16	Y16	Z16	X17	Y17	Z17	X18	Y18	Z18	
50	0.416667	50.8151	74.4951	21.6548	18.9199	75.8895	9.11499	-4.41445	75.6175	-13.3065	-17.1564	71.771	-40.2079	60.5607	105.542	-57.1596	48.8436	110.151	-83.9196	36.7945	107.121	-108.745	73.5773	89.1678	-75.8139	59.5855	87.797	-101.87	45.7766	78.0288	-131.377	83.0165	57.7332	-80.3157	64.9634	51.2512	-100.272	39.443	37.156	-118.255	87.7321	31.7643	-71.3282	66.9925	22.885	-87.2645	49.361	9.36694	-98.9497	109.479	61.2229	-24.3603	119.952	52.5928	7.2311	94.4397	77.4235	7.28003	
51	0.425	50.2993	73.4612	24.7711	20.6493	76.8443	5.57174	-3.12196	75.3931	-15.1632	-16.1083	72.0519	-40.6095	61.147	100.793	-57.3036	48.7439	103.435	-83.7846	31.6914	102.306	-110.171	75.0207	85.7247	-72.8752	59.4129	84.7131	-102.784	38.7613	77.1488	-131.972	86.6355	57.6794	-79.9469	66.3556	54.9994	-105.49	47.0082	42.3763	-125.508	90.9457	32.0526	-74.1141	77.0092	19.7593	-90.2763	57.5539	12.3544	-111.535	109.408	59.9354	-24.6582	121.342	48.7162	6.83224	92.7402	79.8776	6.53282	
52	0.433333	46.9193	68.9854	22.0821	14.9884	67.9427	6.7029	-6.8823	64.4437	-18.2473	-22.2594	59.6068	-38.4727	51.8319	89.7523	-63.9628	36.2607	91.1766	-88.9052	23.0184	79.3378	-115.112	69.4052	76.3778	-78.2719	51.506	73.5611	-104.188	34.5884	58.5531	-131.749	80.4677	53.6309	-81.8605	66.8378	46.9928	-105.002	47.709	35.9956	-128.171	90.9369	27.0992	-72.0154	77.3024	16.2733	-93.1895	64.1064	7.68537	-112.923	107.71	53.5696	-24.6448	115.541	48.0364	10.3799	88.5002	73.3097	3.49177	
53	0.441667	38.7412	53.5532	21.3288	6.31865	48.1127	6.433	-15.6667	39.9291	-15.9295	-30.5425	31.837	-41.7031	39.8093	68.9959	-62.428	26.9582	63.5916	-87.1394	12.6266	50.6927	-110.037	56.9783	58.8076	-76.4548	41.5619	48.7123	-109.012	26.8904	33.1472	-130.871	73.1092	34.415	-82.5425	60.549	26.2937	-103.778	37.4389	16.1977	-125.674	86.7376	10.2315	-69.0294	75.3792	-3.34096	-89.154	60.6666	-8.78164	-109.237	99.9833	42.3068	-22.4346	109.131	40.8682	8.29173	77.6275	65.7181	2.44121	
54	0.45	32.1149	37.366	19.7488	2.75499	27.6868	5.56773	-22.4537	18.183	-19.6792	-35.0845	7.06885	-36.8466	28.2895	51.1977	-67.085	12.1325	44.5344	-91.3005	0.4534	31.118	-109.783	47.6169	41.687	-79.3091	32.2937	30.616	-109.471	17.2017	16.8668	-129.424	61.5236	20.0367	-81.2006	52.9146	7.68793	-102.957	33.3989	-3.90845	-121.904	77.2021	-3.65036	-71.0951	64.3568	-17.9974	-89.6086	51.0633	-30.7504	-110.063	87.3955	31.8876	-25.0398	101.941	30.547	7.51678	67.1398	54.4775	-1.46653	
55	0.458333	27.1334	29.9273	18.1269	-2.19027	18.918	1.2209	-25.9459	6.79548	-17.7215	-36.5148	-5.98682	-41.4134	21.0551	44.9041	-65.0333	8.78197	35.7653	-90.0656	-4.16669	22.297	-109.148	43.6791	34.5202	-78.635	29.5034	24.4239	-107.58	14.0483	5.69839	-133.2	60.7366	11.6821	-78.844	42.6518	1.95577	-103.624	30.3676	-15.3566	-123.446	72.6318	-8.9676	-68.0026	60.467	-27.0779	-88.3554	44.9004	-35.0938	-105.368	84.4311	26.7945	-26.1856	96.26	25.8013	7.87784	59.338	48.7467	-0.295572	
56	0.466667	24.4269	28.4328	18.3007	-5.87673	15.1046	2.8325	-26.6511	3.29028	-20.3092	-38.5662	-9.43231	-40.32	20.0499	41.9975	-65.4569	5.04099	36.2809	-86.7146	-9.45171	19.8067	-109.993	41.6174	33.7132	-77.564	29.9669	22.9015	-105.922	12.6195	6.24847	-130.892	55.7212	13.1641	-77.7054	45.6536	-0.973862	-103.704	29.6136	-16.6734	-121.766	68.5853	-9.04066	-68.743	58.9238	-27.9017	-87.0436	44.2086	-42.1414	-103.538	83.1697	23.909	-23.7428	94.2528	26.1775	6.95525	59.5497	44.9353	-1.11536	
57	0.475	22.7385	27.0498	20.5226	-8.34855	14.6881	1.80917	-31.8913	1.72222	-21.7101	-37.4988	-10.4952	-38.3109	17.1769	43.9124	-61.9521	4.38853	35.4146	-88.2838	-9.99809	17.2973	-109.338	41.3833	32.5172	-77.5642	25.9816	23.7989	-108.31	12.7796	6.05645	-130.541	57.1499	12.2255	-77.8353	44.3602	2.10762	-102.156	23.9569	-11.7732	-122.18	70.0254	-11.5875	-71.1984	54.9906	-23.974	-86.6733	40.3936	-39.9742	-106.555	79.4122	26.5111	-22.3945	92.565	25.5331	4.53492	58.8927	44.2148	-0.252168	
58	0.483333	22.4418	27.5406	17.9015	-7.57025	13.8109	5.364	-31.6115	2.24429	-16.7822	-37.5222	-11.7262	-40.6384	18.1641	42.2327	-62.1589	0.105834	35.7897	-88.2828	-12.7115	18.6735	-106.967	40.7723	33.5946	-75.6383	26.9879	21.9196	-109.494	7.16224	6.61008	-132.011	53.0872	15.5075	-77.7971	43.5601	0.197156	-103.523	25.6975	-11.1571	-121.396	70.0538	-10.5564	-69.6519	56.2343	-25.1104	-87.9773	43.8269	-37.7557	-106.528	81.2654	23.0997	-22.237	94.332	24.8259	9.21051	59.1597	44.6979	1.89746	
59	0.491667	23.8117	26.0105	18.8558	-9.38696	14.1034	5.87423	-26.4273	-0.304491	-20.9957	-36.9614	-13.1297	-38.9351	14.9991	42.3499	-61.1926	2.32409	32.335	-86.3677	-10.3717	13.505	-107.3	38.5971	31.5877	-78.7484	25.0224	21.6101	-108.087	9.76966	5.81807	-129.445	55.9107	12.197	-79.2249	44.7755	0.391187	-103.59	28.4667	-13.6942	-122.341	71.6925	-10.6328	-67.5534	59.679	-25.1102	-87.2891	45.1586	-34.5097	-104.899	78.3742	23.2127	-26.0228	94.0917	24.696	8.57355	60.6554	44.0258	1.89626	
60	0.5	21.361	25.0319	23.0174	-4.75484	11.2508	4.85696	-28.5764	-1.43053	-18.119	-39.7246	-14.9937	-39.8282	16.1991	39.1567	-64.1334	-1.93449	28.7897	-87.9235	-15.9132	11.1205	-106.8	37.9864	32.6178	-74.0276	22.3959	23.8011	-103.753	8.67774	2.99883	-132.983	56.4379	12.1873	-81.141	46.114	2.58513	-102.688	30.3312	-10.2363	-125.662	74.6411	-9.83558	-66.9203	59.4938	-18.6773	-91.3377	55.3421	-29.4081	-110.262	81.1049	22.3489	-24.3859	94.052	24.0025	7.54633	58.6519	43.4288	-0.680014	
61	0.508333	21.1151	23.9196	19.656	-8.97834	10.5366	8.55813	-30.9457	-1.93188	-18.1431	-35.1633	-13.8996	-39.7044	15.6182	41.8068	-58.3577	1.59336	29.3224	-87.2149	-14.1935	13.5153	-102.694	41.5243	35.6021	-72.9289	23.2364	32.7965	-104.826	9.88744	20.1638	-131.261	58.1453	23.0322	-76.7289	51.8182	18.5418	-101.192	40.3133	9.29126	-127.94	77.2543	1.82701	-68.9786	73.7798	-6.59152	-91.0124	66.032	-9.9768	-119.858	80.5799	24.0766	-23.7054	93.4681	25.6625	8.04519	55.3287	44.6251	3.55273	
62	0.516667	21.3726	24.1221	21.4315	-5.85243	10.9808	5.8936	-28.6475	1.20055	-23.1045	-36.0252	-8.67389	-43.5593	18.2857	45.918	-58.2811	4.84929	36.7266	-83.3372	-12.2413	19.3847	-104.675	41.948	51.7511	-74.3852	28.0047	52.3697	-100.873	18.1862	47.1379	-134.244	67.8475	37.5087	-72.6193	58.6129	42.7491	-102.203	51.3118	40.3189	-132.491	88.5148	14.719	-65.5939	84.8193	15.0589	-94.1905	81.1558	16.1039	-120.377	82.4091	32.0388	-18.4117	96.6241	30.4007	12.0642	56.211	45.3047	4.12266	
63	0.525	23.407	28.4104	18.5954	-3.08219	18.4661	2.32508	-26.518	11.2805	-23.0444	-35.5934	2.73694	-48.968	23.3191	54.6067	-59.9202	3.46974	48.9627	-85.2739	-3.46225	31.2933	-109.403	49.7107	62.4503	-69.8668	38.9306	69.0882	-96.6905	30.4508	73.9152	-133.058	75.9998	48.1219	-70.467	72.8896	55.1137	-98.4467	66.6974	59.3065	-126.405	95.0778	24.1066	-65.2968	92.9558	26.531	-89.8321	97.6532	31.2512	-115.583	87.1178	40.6995	-20.6745	98.0579	34.3202	13.9298	57.6431	50.4498	5.55966	
64	0.533333	29.6928	29.4165	21.617	-2.37185	25.2676	0.450015	-24.7267	18.5923	-20.9643	-33.5535	13.3182	-48.489	25.7691	62.7058	-56.9385	9.41011	59.5372	-87.6731	1.68132	48.6365	-112.686	52.2971	67.1514	-68.8097	47.596	73.502	-99.2928	37.9855	81.5705	-128.306	79.7856	50.3691	-71.8415	79.9303	58.0857	-102.328	73.8118	63.6791	-124.352	97.4311	26.5179	-66.7943	100.57	27.9983	-92.2754	108.251	33.1292	-112.43	91.5315	40.3991	-21.7864	101.591	35.3875	12.5474	63.9765	50.7579	6.16891	
65	0.541667	28.4974	28.7815	20.0564	2.81487	24.4391	1.27849	-22.538	22.7347	-21.2066	-33.6	17.041	-44.3678	28.8458	63.0862	-56.5583	18.2941	63.9327	-87.7381	8.25968	61.1597	-111.102	57.4258	66.7244	-73.1623	49.6899	71.9299	-99.0819	40.9402	78.8179	-127.387	78.7065	53.1134	-73.2845	77.8226	59.4455	-98.3464	74.5407	67.6717	-125.735	100.404	30.4686	-66.6712	107.125	32.8466	-92.1694	111.236	40.7091	-109.705	92.2601	40.5752	-17.7404	99.27	34.9119	15.1615	64.9581	52.3452	4.02218	
66	0.55	28.4445	24.8049	19.1087	4.1068	20.9742	1.94304	-22.4518	22.5048	-24.238	-32.5209	17.9398	-45.4041	29.1715	61.2368	-60.1817	16.7691	65.9384	-82.5858	7.65744	67.6134	-113.52	56.404	65.0165	-69.1009	49.9622	72.1508	-99.3342	44.6689	79.0974	-131.95	82.3004	57.4306	-73.4734	81.6647	65.0898	-98.8253	77.517	72.6515	-122.241	104.903	37.0625	-61.8241	110.047	41.6337	-83.1758	121.038	52.3304	-105.859	93.6114	44.7333	-19.75	99.5978	37.2511	13.4715	62.2942	48.3782	6.99105	
67	0.558333	29.2513	22.1726	18.3591	5.83101	19.5455	-0.622187	-16.1464	20.6478	-27.819	-32.4123	16.6285	-45.2513	30.8486	60.9406	-60.4145	17.9587	65.592	-85.1919	13.0061	69.9053	-113.243	54.1242	67.8908	-71.8617	52.9541	74.4229	-98.7781	49.1388	82.0508	-128.586	85.9206	59.8774	-66.8554	84.1889	69.1736	-92.4211	82.456	78.6936	-119.908	111.068	41.8018	-58.2999	115.644	52.9417	-84.3265	125.405	61.6281	-100.989	92.6991	46.5764	-14.6097	101.83	40.6358	17.949	58.5382	49.757	5.47175	
68	0.566667	32.0283	20.675	16.604	9.81085	18.5379	-0.473584	-19.0229	19.482	-25.5664	-32.0753	17.2485	-45.3756	34.2119	60.9237	-58.7442	24.8893	67.8553	-84.0636	13.3945	72.6615	-110.194	61.161	71.3209	-72.4103	57.401	77.2077	-98.3376	53.65	87.4921	-128.09	90.4057	63.1495	-68.2041	87.3055	71.4387	-92.4479	85.8151	83.7033	-121.431	113.237	45.2575	-59.783	118.05	50.442	-81.108	128.255	63.486	-104.789	92.4683	48.9988	-13.0936	100.667	43.201	15.8357	64.0292	49.8401	4.29333	
69	0.575	37.1123	25.7587	11.6918	12.0618	23.4553	-1.93586	-15.0743	26.5599	-28.7785	-28.5143	22.1605	-45.0222	34.3359	68.0044	-60.3762	26.3835	74.9767	-83.415	18.5836	81.9083	-108.376	64.9264	75.2369	-68.3214	60.7649	84.3639	-96.1978	63.5504	94.6792	-127.545	94.3666	63.3517	-67.6908	92.6143	69.9759	-93.1179	97.8985	79.2956	-122.803	115.733	44.2944	-64.5619	126.207	42.3681	-83.8106	133.733	48.2575	-106.353	98.7793	52.2115	-15.4701	99.8645	43.2439	20.168	63.9741	49.6354	8.46942	
70	0.583333	38.9696	29.9807	14.3891	12.7935	30.5284	-3.95626	-15.7284	33.9886	-25.9995	-28.9868	32.7958	-46.2712	42.389	76.4435	-60.9607	31.5535	84.2545	-82.5547	22.0975	92.4294	-110.981	74.0037	79.3657	-67.2453	66.2102	88.2816	-94.3232	69.546	95.3524	-126.699	95.8303	63.8937	-69.615	96.9405	68.2929	-95.4991	96.3759	72.2947	-125.458	118.594	41.8393	-66.9853	125.266	35.0421	-90.9479	128.581	36.125	-110.314	102.03	53.8154	-15.9721	103.903	45.8119	16.3817	69.1075	57.4092	7.48596	
71	0.591667	37.9975	33.2112	14.4421	10.1108	32.5512	0.263509	-11.3378	34.5778	-28.6449	-28.6097	33.8189	-49.7595	42.8697	76.2302	-58.0909	36.4241	83.1249	-86.6199	26.3896	86.0135	-110.588	69.785	76.4462	-72.186	66.746	78.9945	-100.616	63.006	73.8965	-137.751	95.7796	58.6668	-73.8958	98.4831	54.7174	-99.7911	91.7217	49.9306	-132.835	117.623	35.2429	-64.2396	117.924	27.95	-89.0082	119.04	19.1828	-111.217	103.668	55.0257	-11.9492	104.616	44.7706	22.1303	69.3609	54.9256	10.6437	
